<svg xmlns="http://www.w3.org/2000/svg" width="940" height="860" viewBox="0 0 940 860" role="img" aria-labelledby="title desc">
  <title id="title">BZ phase-lifted entropy-gated conductance reference simulation</title>
  <desc id="desc">Comparison between a fixed-rate baseline and the entropy-gated conductance law under a synthetic Brillouin-zone slip burst.</desc>
  <rect width="100%" height="100%" fill="#f8fafc"/>
  <text x="80" y="42" font-size="28" font-family="Georgia" fill="#0f172a">Reference Simulation</text>
  <text x="80" y="66" font-size="14" font-family="Georgia" fill="#334155">Synthetic BZ current bundle with phase lifting, sheet slips, and entropy feedback.</text>
  <text x="80" y="78" font-size="18" font-family="Georgia">Conductance magnitude</text>
<line x1="80" y1="90" x2="80" y2="260" stroke="#1f2937" stroke-width="1.5"/>
<line x1="80" y1="260" x2="860" y2="260" stroke="#1f2937" stroke-width="1.5"/>
<line x1="340.00" y1="90" x2="340.00" y2="260" stroke="#b45309" stroke-width="1.2" stroke-dasharray="6 6"/>
<text x="348.00" y="106" font-size="12" fill="#92400e" font-family="Georgia">slip burst</text>
  <polyline fill="none" stroke="#9a3412" stroke-width="2.5" points="80.00,90.00 82.17,90.00 84.33,90.01 86.50,90.03 88.67,90.06 90.83,90.10 93.00,90.17 95.17,90.25 97.33,90.36 99.50,90.48 101.67,90.64 103.83,90.81 106.00,91.01 108.17,91.24 110.33,91.50 112.50,91.78 114.67,92.08 116.83,92.42 119.00,92.78 121.17,93.16 123.33,93.57 125.50,94.00 127.67,94.46 129.83,94.94 132.00,95.44 134.17,95.97 136.33,96.51 138.50,97.07 140.67,97.66 142.83,98.25 145.00,98.87 147.17,99.50 149.33,100.14 151.50,100.80 153.67,101.47 155.83,102.14 158.00,102.83 160.17,103.53 162.33,104.23 164.50,104.94 166.67,105.66 168.83,106.38 171.00,107.10 173.17,107.83 175.33,108.56 177.50,109.28 179.67,110.01 181.83,110.74 184.00,111.46 186.17,112.18 188.33,112.90 190.50,113.61 192.67,114.32 194.83,115.02 197.00,115.72 199.17,116.41 201.33,117.09 203.50,117.77 205.67,118.43 207.83,119.09 210.00,119.74 212.17,120.38 214.33,121.01 216.50,121.63 218.67,122.23 220.83,122.83 223.00,123.42 225.17,123.99 227.33,124.56 229.50,125.11 231.67,125.65 233.83,126.18 236.00,126.70 238.17,127.21 240.33,127.70 242.50,128.19 244.67,128.66 246.83,129.12 249.00,129.57 251.17,130.01 253.33,130.44 255.50,130.86 257.67,131.26 259.83,131.66 262.00,132.05 264.17,132.42 266.33,132.79 268.50,133.15 270.67,133.50 272.83,133.84 275.00,134.17 277.17,134.49 279.33,134.81 281.50,135.12 283.67,135.42 285.83,135.71 288.00,136.00 290.17,136.29 292.33,136.56 294.50,136.83 296.67,137.10 298.83,137.36 301.00,137.62 303.17,137.88 305.33,138.13 307.50,138.38 309.67,138.63 311.83,138.87 314.00,139.12 316.17,139.36 318.33,139.63 320.50,139.95 322.67,140.52 324.83,141.95 327.00,145.76 329.17,153.53 331.33,162.59 333.50,168.62 335.67,174.71 337.83,182.25 340.00,189.87 342.17,196.95 344.33,202.16 346.50,206.93 348.67,214.42 350.83,220.34 353.00,221.90 355.17,220.83 357.33,218.82 359.50,216.59 361.67,214.34 363.83,212.13 366.00,210.00 368.17,207.93 370.33,205.93 372.50,204.00 374.67,202.14 376.83,200.34 379.00,198.61 381.17,196.95 383.33,195.34 385.50,193.80 387.67,192.32 389.83,190.89 392.00,189.52 394.17,188.21 396.33,186.94 398.50,185.73 400.67,184.57 402.83,183.46 405.00,182.40 407.17,181.38 409.33,180.41 411.50,179.48 413.67,178.59 415.83,177.74 418.00,176.93 420.17,176.16 422.33,175.43 424.50,174.73 426.67,174.06 428.83,173.43 431.00,172.83 433.17,172.26 435.33,171.72 437.50,171.21 439.67,170.72 441.83,170.26 444.00,169.82 446.17,169.41 448.33,169.01 450.50,168.64 452.67,168.29 454.83,167.96 457.00,167.65 459.17,167.35 461.33,167.07 463.50,166.80 465.67,166.54 467.83,166.30 470.00,166.08 472.17,165.86 474.33,165.65 476.50,165.45 478.67,165.27 480.83,165.09 483.00,164.91 485.17,164.75 487.33,164.59 489.50,164.43 491.67,164.28 493.83,164.13 496.00,163.99 498.17,163.85 500.33,163.71 502.50,163.57 504.67,163.44 506.83,163.31 509.00,163.17 511.17,163.04 513.33,162.91 515.50,162.77 517.67,162.64 519.83,162.50 522.00,162.36 524.17,162.23 526.33,162.08 528.50,161.94 530.67,161.80 532.83,161.65 535.00,161.50 537.17,161.35 539.33,161.19 541.50,161.03 543.67,160.87 545.83,160.70 548.00,160.54 550.17,160.37 552.33,160.19 554.50,160.02 556.67,159.84 558.83,159.66 561.00,159.47 563.17,159.28 565.33,159.09 567.50,158.90 569.67,158.70 571.83,158.51 574.00,158.31 576.17,158.10 578.33,157.90 580.50,157.69 582.67,157.49 584.83,157.28 587.00,157.07 589.17,156.86 591.33,156.65 593.50,156.44 595.67,156.22 597.83,156.01 600.00,155.80 602.17,155.59 604.33,155.38 606.50,155.17 608.67,154.96 610.83,154.75 613.00,154.55 615.17,154.34 617.33,154.14 619.50,153.94 621.67,153.74 623.83,153.55 626.00,153.36 628.17,153.17 630.33,152.99 632.50,152.81 634.67,152.64 636.83,152.47 639.00,152.30 641.17,152.14 643.33,151.99 645.50,151.84 647.67,151.70 649.83,151.56 652.00,151.43 654.17,151.31 656.33,151.19 658.50,151.08 660.67,150.98 662.83,150.89 665.00,150.80 667.17,150.72 669.33,150.65 671.50,150.59 673.67,150.54 675.83,150.50 678.00,150.46 680.17,150.43 682.33,150.42 684.50,150.41 686.67,150.41 688.83,150.42 691.00,150.44 693.17,150.47 695.33,150.51 697.50,150.55 699.67,150.61 701.83,150.68 704.00,150.76 706.17,150.84 708.33,150.94 710.50,151.04 712.67,151.16 714.83,151.28 717.00,151.41 719.17,151.55 721.33,151.70 723.50,151.85 725.67,152.02 727.83,152.19 730.00,152.37 732.17,152.56 734.33,152.76 736.50,152.96 738.67,153.17 740.83,153.38 743.00,153.60 745.17,153.83 747.33,154.06 749.50,154.29 751.67,154.53 753.83,154.78 756.00,155.02 758.17,155.27 760.33,155.53 762.50,155.78 764.67,156.04 766.83,156.30 769.00,156.56 771.17,156.82 773.33,157.08 775.50,157.35 777.67,157.61 779.83,157.87 782.00,158.12 784.17,158.38 786.33,158.63 788.50,158.88 790.67,159.13 792.83,159.37 795.00,159.61 797.17,159.85 799.33,160.08 801.50,160.30 803.67,160.52 805.83,160.74 808.00,160.94 810.17,161.14 812.33,161.34 814.50,161.52 816.67,161.70 818.83,161.87 821.00,162.04 823.17,162.19 825.33,162.34 827.50,162.48 829.67,162.60 831.83,162.72 834.00,162.83 836.17,162.94 838.33,163.03 840.50,163.11 842.67,163.18 844.83,163.24 847.00,163.30 849.17,163.34 851.33,163.37 853.50,163.40 855.67,163.41 857.83,163.42 860.00,163.41"/>
  <polyline fill="none" stroke="#065f46" stroke-width="2.5" points="80.00,90.00 82.17,90.05 84.33,90.16 86.50,90.32 88.67,90.54 90.83,90.81 93.00,91.13 95.17,91.52 97.33,91.95 99.50,92.44 101.67,92.99 103.83,93.58 106.00,94.23 108.17,94.93 110.33,95.67 112.50,96.46 114.67,97.30 116.83,98.18 119.00,99.10 121.17,100.06 123.33,101.06 125.50,102.10 127.67,103.17 129.83,104.27 132.00,105.40 134.17,106.56 136.33,107.75 138.50,108.96 140.67,110.20 142.83,111.45 145.00,112.73 147.17,114.02 149.33,115.32 151.50,116.64 153.67,117.97 155.83,119.31 158.00,120.66 160.17,122.01 162.33,123.37 164.50,124.73 166.67,126.10 168.83,127.46 171.00,128.82 173.17,130.18 175.33,131.53 177.50,132.88 179.67,134.22 181.83,135.56 184.00,136.88 186.17,138.19 188.33,139.50 190.50,140.79 192.67,142.06 194.83,143.32 197.00,144.57 199.17,145.80 201.33,147.02 203.50,148.21 205.67,149.39 207.83,150.55 210.00,151.69 212.17,152.81 214.33,153.91 216.50,154.99 218.67,156.05 220.83,157.08 223.00,158.10 225.17,159.09 227.33,160.06 229.50,161.01 231.67,161.93 233.83,162.83 236.00,163.71 238.17,164.56 240.33,165.39 242.50,166.20 244.67,166.99 246.83,167.75 249.00,168.48 251.17,169.20 253.33,169.89 255.50,170.56 257.67,171.20 259.83,171.83 262.00,172.43 264.17,173.01 266.33,173.56 268.50,174.10 270.67,174.61 272.83,175.10 275.00,175.58 277.17,176.03 279.33,176.46 281.50,176.87 283.67,177.26 285.83,177.63 288.00,177.99 290.17,178.32 292.33,178.64 294.50,178.94 296.67,179.22 298.83,179.49 301.00,179.74 303.17,179.97 305.33,180.19 307.50,180.39 309.67,180.57 311.83,180.75 314.00,180.91 316.17,181.06 318.33,181.21 320.50,181.40 322.67,181.80 324.83,182.99 327.00,186.44 329.17,193.73 331.33,202.33 333.50,207.96 335.67,213.74 337.83,221.12 340.00,228.69 342.17,235.68 344.33,240.82 346.50,245.54 348.67,252.87 350.83,258.55 353.00,260.00 355.17,258.93 357.33,256.97 359.50,254.78 361.67,252.56 363.83,250.35 366.00,248.17 368.17,246.04 370.33,243.94 372.50,241.89 374.67,239.88 376.83,237.91 379.00,235.97 381.17,234.08 383.33,232.23 385.50,230.42 387.67,228.65 389.83,226.92 392.00,225.23 394.17,223.58 396.33,221.97 398.50,220.39 400.67,218.86 402.83,217.36 405.00,215.90 407.17,214.47 409.33,213.08 411.50,211.72 413.67,210.40 415.83,209.12 418.00,207.86 420.17,206.64 422.33,205.45 424.50,204.30 426.67,203.17 428.83,202.08 431.00,201.01 433.17,199.97 435.33,198.96 437.50,197.98 439.67,197.02 441.83,196.09 444.00,195.18 446.17,194.30 448.33,193.44 450.50,192.60 452.67,191.79 454.83,191.00 457.00,190.22 459.17,189.47 461.33,188.74 463.50,188.02 465.67,187.33 467.83,186.64 470.00,185.98 472.17,185.33 474.33,184.70 476.50,184.08 478.67,183.47 480.83,182.88 483.00,182.30 485.17,181.73 487.33,181.18 489.50,180.63 491.67,180.10 493.83,179.57 496.00,179.05 498.17,178.55 500.33,178.05 502.50,177.55 504.67,177.07 506.83,176.59 509.00,176.12 511.17,175.66 513.33,175.20 515.50,174.75 517.67,174.30 519.83,173.86 522.00,173.42 524.17,172.98 526.33,172.55 528.50,172.13 530.67,171.70 532.83,171.29 535.00,170.87 537.17,170.46 539.33,170.05 541.50,169.64 543.67,169.24 545.83,168.83 548.00,168.44 550.17,168.04 552.33,167.64 554.50,167.25 556.67,166.86 558.83,166.47 561.00,166.09 563.17,165.70 565.33,165.32 567.50,164.94 569.67,164.57 571.83,164.19 574.00,163.82 576.17,163.45 578.33,163.08 580.50,162.72 582.67,162.36 584.83,162.00 587.00,161.64 589.17,161.29 591.33,160.94 593.50,160.59 595.67,160.25 597.83,159.90 600.00,159.57 602.17,159.23 604.33,158.91 606.50,158.58 608.67,158.26 610.83,157.94 613.00,157.63 615.17,157.33 617.33,157.02 619.50,156.73 621.67,156.44 623.83,156.15 626.00,155.87 628.17,155.60 630.33,155.33 632.50,155.07 634.67,154.82 636.83,154.57 639.00,154.33 641.17,154.10 643.33,153.88 645.50,153.66 647.67,153.45 649.83,153.25 652.00,153.06 654.17,152.87 656.33,152.70 658.50,152.53 660.67,152.38 662.83,152.23 665.00,152.09 667.17,151.96 669.33,151.84 671.50,151.73 673.67,151.63 675.83,151.54 678.00,151.47 680.17,151.40 682.33,151.34 684.50,151.29 686.67,151.25 688.83,151.23 691.00,151.21 693.17,151.21 695.33,151.21 697.50,151.23 699.67,151.25 701.83,151.29 704.00,151.34 706.17,151.39 708.33,151.46 710.50,151.54 712.67,151.63 714.83,151.73 717.00,151.83 719.17,151.95 721.33,152.08 723.50,152.21 725.67,152.35 727.83,152.51 730.00,152.67 732.17,152.84 734.33,153.01 736.50,153.20 738.67,153.39 740.83,153.59 743.00,153.79 745.17,154.00 747.33,154.22 749.50,154.44 751.67,154.67 753.83,154.90 756.00,155.14 758.17,155.38 760.33,155.62 762.50,155.86 764.67,156.11 766.83,156.36 769.00,156.61 771.17,156.87 773.33,157.12 775.50,157.37 777.67,157.62 779.83,157.88 782.00,158.13 784.17,158.38 786.33,158.62 788.50,158.87 790.67,159.11 792.83,159.35 795.00,159.58 797.17,159.81 799.33,160.04 801.50,160.26 803.67,160.48 805.83,160.69 808.00,160.89 810.17,161.09 812.33,161.28 814.50,161.46 816.67,161.64 818.83,161.81 821.00,161.97 823.17,162.12 825.33,162.27 827.50,162.40 829.67,162.53 831.83,162.65 834.00,162.76 836.17,162.86 838.33,162.96 840.50,163.05 842.67,163.13 844.83,163.21 847.00,163.28 849.17,163.35 851.33,163.42 853.50,163.48 855.67,163.54 857.83,163.59 860.00,163.65"/>
  <text x="640" y="108" font-size="13" font-family="Georgia" fill="#9a3412">fixed-rate baseline</text>
  <text x="640" y="126" font-size="13" font-family="Georgia" fill="#065f46">entropy-gated law</text>
  <text x="80" y="328" font-size="18" font-family="Georgia">Entropy and rate gates</text>
<line x1="80" y1="340" x2="80" y2="510" stroke="#1f2937" stroke-width="1.5"/>
<line x1="80" y1="510" x2="860" y2="510" stroke="#1f2937" stroke-width="1.5"/>
<line x1="340.00" y1="340" x2="340.00" y2="510" stroke="#b45309" stroke-width="1.2" stroke-dasharray="6 6"/>
<text x="348.00" y="356" font-size="12" fill="#92400e" font-family="Georgia">slip burst</text>
  <polyline fill="none" stroke="#1d4ed8" stroke-width="2.4" points="80.00,390.84 82.17,390.20 84.33,389.57 86.50,388.96 88.67,388.37 90.83,387.80 93.00,387.24 95.17,386.70 97.33,386.17 99.50,385.66 101.67,385.16 103.83,384.67 106.00,384.20 108.17,383.74 110.33,383.30 112.50,382.86 114.67,382.44 116.83,382.03 119.00,381.63 121.17,381.24 123.33,380.86 125.50,380.50 127.67,380.14 129.83,379.79 132.00,379.45 134.17,379.12 136.33,378.80 138.50,378.48 140.67,378.18 142.83,377.88 145.00,377.59 147.17,377.31 149.33,377.04 151.50,376.77 153.67,376.51 155.83,376.26 158.00,376.02 160.17,375.78 162.33,375.55 164.50,375.33 166.67,375.11 168.83,374.90 171.00,374.70 173.17,374.50 175.33,374.31 177.50,374.12 179.67,373.95 181.83,373.77 184.00,373.61 186.17,373.45 188.33,373.30 190.50,373.15 192.67,373.01 194.83,372.87 197.00,372.75 199.17,372.62 201.33,372.51 203.50,372.39 205.67,372.29 207.83,372.19 210.00,372.10 212.17,372.01 214.33,371.93 216.50,371.86 218.67,371.79 220.83,371.72 223.00,371.67 225.17,371.61 227.33,371.57 229.50,371.53 231.67,371.50 233.83,371.47 236.00,371.45 238.17,371.43 240.33,371.42 242.50,371.41 244.67,371.42 246.83,371.42 249.00,371.44 251.17,371.45 253.33,371.48 255.50,371.51 257.67,371.54 259.83,371.58 262.00,371.63 264.17,371.68 266.33,371.74 268.50,371.81 270.67,371.87 272.83,371.95 275.00,372.03 277.17,372.12 279.33,372.21 281.50,372.30 283.67,372.40 285.83,372.51 288.00,372.62 290.17,372.74 292.33,372.87 294.50,372.99 296.67,373.13 298.83,373.27 301.00,373.41 303.17,373.56 305.33,373.71 307.50,373.87 309.67,374.03 311.83,374.20 314.00,374.37 316.17,374.55 318.33,374.73 320.50,374.91 322.67,375.09 324.83,375.28 327.00,375.49 329.17,375.79 331.33,376.17 333.50,373.65 335.67,369.73 337.83,367.40 340.00,368.03 342.17,368.64 344.33,369.22 346.50,368.36 348.67,369.00 350.83,369.58 353.00,370.13 355.17,370.68 357.33,371.23 359.50,371.78 361.67,372.33 363.83,372.88 366.00,373.42 368.17,373.94 370.33,374.45 372.50,374.95 374.67,375.43 376.83,375.89 379.00,376.35 381.17,376.79 383.33,377.21 385.50,377.63 387.67,378.03 389.83,378.42 392.00,378.80 394.17,379.17 396.33,379.53 398.50,379.87 400.67,380.21 402.83,380.54 405.00,380.86 407.17,381.17 409.33,381.47 411.50,381.76 413.67,382.04 415.83,382.31 418.00,382.58 420.17,382.84 422.33,383.09 424.50,383.33 426.67,383.57 428.83,383.80 431.00,384.03 433.17,384.24 435.33,384.45 437.50,384.66 439.67,384.86 441.83,385.05 444.00,385.24 446.17,385.42 448.33,385.59 450.50,385.77 452.67,385.93 454.83,386.09 457.00,386.25 459.17,386.40 461.33,386.55 463.50,386.70 465.67,386.83 467.83,386.97 470.00,387.10 472.17,387.23 474.33,387.35 476.50,387.47 478.67,387.59 480.83,387.70 483.00,387.81 485.17,387.92 487.33,388.03 489.50,388.13 491.67,388.22 493.83,388.32 496.00,388.41 498.17,388.50 500.33,388.59 502.50,388.67 504.67,388.76 506.83,388.84 509.00,388.91 511.17,388.99 513.33,389.06 515.50,389.13 517.67,389.20 519.83,389.27 522.00,389.33 524.17,389.40 526.33,389.46 528.50,389.52 530.67,389.57 532.83,389.63 535.00,389.68 537.17,389.74 539.33,389.79 541.50,389.84 543.67,389.89 545.83,389.93 548.00,389.98 550.17,390.02 552.33,390.07 554.50,390.11 556.67,390.15 558.83,390.19 561.00,390.23 563.17,390.26 565.33,390.30 567.50,390.33 569.67,390.37 571.83,390.40 574.00,390.43 576.17,390.46 578.33,390.49 580.50,390.52 582.67,390.55 584.83,390.58 587.00,390.61 589.17,390.63 591.33,390.66 593.50,390.68 595.67,390.71 597.83,390.73 600.00,390.75 602.17,390.77 604.33,390.80 606.50,390.82 608.67,390.84 610.83,390.86 613.00,390.87 615.17,390.89 617.33,390.91 619.50,390.93 621.67,390.94 623.83,390.96 626.00,390.98 628.17,390.99 630.33,391.01 632.50,391.02 634.67,391.04 636.83,391.05 639.00,391.06 641.17,391.08 643.33,391.09 645.50,391.10 647.67,391.11 649.83,391.12 652.00,391.13 654.17,391.15 656.33,391.16 658.50,391.17 660.67,391.18 662.83,391.19 665.00,391.19 667.17,391.20 669.33,391.21 671.50,391.22 673.67,391.23 675.83,391.24 678.00,391.25 680.17,391.25 682.33,391.26 684.50,391.27 686.67,391.27 688.83,391.28 691.00,391.29 693.17,391.29 695.33,391.30 697.50,391.31 699.67,391.31 701.83,391.32 704.00,391.32 706.17,391.33 708.33,391.33 710.50,391.34 712.67,391.34 714.83,391.35 717.00,391.35 719.17,391.36 721.33,391.36 723.50,391.37 725.67,391.37 727.83,391.37 730.00,391.38 732.17,391.38 734.33,391.38 736.50,391.39 738.67,391.39 740.83,391.39 743.00,391.40 745.17,391.40 747.33,391.40 749.50,391.41 751.67,391.41 753.83,391.41 756.00,391.42 758.17,391.42 760.33,391.42 762.50,391.42 764.67,391.43 766.83,391.43 769.00,391.43 771.17,391.43 773.33,391.43 775.50,391.44 777.67,391.44 779.83,391.44 782.00,391.44 784.17,391.44 786.33,391.45 788.50,391.45 790.67,391.45 792.83,391.45 795.00,391.45 797.17,391.45 799.33,391.46 801.50,391.46 803.67,391.46 805.83,391.46 808.00,391.46 810.17,391.46 812.33,391.46 814.50,391.47 816.67,391.47 818.83,391.47 821.00,391.47 823.17,391.47 825.33,391.47 827.50,391.47 829.67,391.47 831.83,391.46 834.00,391.44 836.17,391.40 838.33,391.35 840.50,391.30 842.67,391.23 844.83,391.15 847.00,391.06 849.17,390.96 851.33,390.85 853.50,390.74 855.67,390.61 857.83,390.48 860.00,390.34"/>
  <polyline fill="none" stroke="#7c3aed" stroke-width="2.4" points="80.00,340.00 82.17,340.37 84.33,340.74 86.50,341.10 88.67,341.45 90.83,341.80 93.00,342.14 95.17,342.47 97.33,342.79 99.50,343.11 101.67,343.42 103.83,343.73 106.00,344.03 108.17,344.32 110.33,344.61 112.50,344.89 114.67,345.17 116.83,345.44 119.00,345.70 121.17,345.96 123.33,346.21 125.50,346.46 127.67,346.70 129.83,346.94 132.00,347.17 134.17,347.40 136.33,347.62 138.50,347.84 140.67,348.05 142.83,348.26 145.00,348.46 147.17,348.66 149.33,348.86 151.50,349.05 153.67,349.23 155.83,349.41 158.00,349.59 160.17,349.76 162.33,349.93 164.50,350.09 166.67,350.25 168.83,350.40 171.00,350.55 173.17,350.70 175.33,350.84 177.50,350.98 179.67,351.11 181.83,351.24 184.00,351.36 186.17,351.49 188.33,351.60 190.50,351.71 192.67,351.82 194.83,351.93 197.00,352.02 199.17,352.12 201.33,352.21 203.50,352.30 205.67,352.38 207.83,352.46 210.00,352.53 212.17,352.60 214.33,352.66 216.50,352.72 218.67,352.78 220.83,352.83 223.00,352.88 225.17,352.92 227.33,352.96 229.50,352.99 231.67,353.02 233.83,353.05 236.00,353.07 238.17,353.09 240.33,353.10 242.50,353.11 244.67,353.11 246.83,353.11 249.00,353.10 251.17,353.10 253.33,353.08 255.50,353.06 257.67,353.04 259.83,353.01 262.00,352.98 264.17,352.95 266.33,352.91 268.50,352.87 270.67,352.82 272.83,352.77 275.00,352.71 277.17,352.65 279.33,352.59 281.50,352.52 283.67,352.45 285.83,352.37 288.00,352.29 290.17,352.21 292.33,352.12 294.50,352.03 296.67,351.94 298.83,351.84 301.00,351.74 303.17,351.63 305.33,351.52 307.50,351.41 309.67,351.30 311.83,351.18 314.00,351.06 316.17,350.93 318.33,350.80 320.50,350.67 322.67,350.54 324.83,350.41 327.00,350.28 329.17,350.13 331.33,349.92 333.50,349.65 335.67,351.46 337.83,354.39 340.00,356.22 342.17,355.72 344.33,355.24 346.50,354.79 348.67,355.46 350.83,354.96 353.00,354.51 355.17,354.09 357.33,353.67 359.50,353.25 361.67,352.84 363.83,352.43 366.00,352.02 368.17,351.62 370.33,351.24 372.50,350.87 374.67,350.52 376.83,350.18 379.00,349.85 381.17,349.53 383.33,349.22 385.50,348.92 387.67,348.64 389.83,348.36 392.00,348.09 394.17,347.84 396.33,347.59 398.50,347.35 400.67,347.12 402.83,346.89 405.00,346.68 407.17,346.47 409.33,346.26 411.50,346.07 413.67,345.88 415.83,345.70 418.00,345.52 420.17,345.35 422.33,345.18 424.50,345.02 426.67,344.87 428.83,344.72 431.00,344.57 433.17,344.43 435.33,344.30 437.50,344.17 439.67,344.04 441.83,343.92 444.00,343.80 446.17,343.68 448.33,343.57 450.50,343.46 452.67,343.36 454.83,343.26 457.00,343.16 459.17,343.06 461.33,342.97 463.50,342.88 465.67,342.79 467.83,342.71 470.00,342.63 472.17,342.55 474.33,342.47 476.50,342.40 478.67,342.33 480.83,342.26 483.00,342.19 485.17,342.13 487.33,342.06 489.50,342.00 491.67,341.94 493.83,341.88 496.00,341.83 498.17,341.77 500.33,341.72 502.50,341.67 504.67,341.62 506.83,341.57 509.00,341.53 511.17,341.48 513.33,341.44 515.50,341.39 517.67,341.35 519.83,341.31 522.00,341.27 524.17,341.24 526.33,341.20 528.50,341.16 530.67,341.13 532.83,341.10 535.00,341.07 537.17,341.03 539.33,341.00 541.50,340.97 543.67,340.95 545.83,340.92 548.00,340.89 550.17,340.86 552.33,340.84 554.50,340.81 556.67,340.79 558.83,340.77 561.00,340.74 563.17,340.72 565.33,340.70 567.50,340.68 569.67,340.66 571.83,340.64 574.00,340.62 576.17,340.61 578.33,340.59 580.50,340.57 582.67,340.55 584.83,340.54 587.00,340.52 589.17,340.51 591.33,340.49 593.50,340.48 595.67,340.46 597.83,340.45 600.00,340.44 602.17,340.42 604.33,340.41 606.50,340.40 608.67,340.39 610.83,340.38 613.00,340.37 615.17,340.36 617.33,340.34 619.50,340.33 621.67,340.32 623.83,340.32 626.00,340.31 628.17,340.30 630.33,340.29 632.50,340.28 634.67,340.27 636.83,340.26 639.00,340.26 641.17,340.25 643.33,340.24 645.50,340.23 647.67,340.23 649.83,340.22 652.00,340.21 654.17,340.21 656.33,340.20 658.50,340.20 660.67,340.19 662.83,340.19 665.00,340.18 667.17,340.17 669.33,340.17 671.50,340.16 673.67,340.16 675.83,340.16 678.00,340.15 680.17,340.15 682.33,340.14 684.50,340.14 686.67,340.13 688.83,340.13 691.00,340.13 693.17,340.12 695.33,340.12 697.50,340.12 699.67,340.11 701.83,340.11 704.00,340.11 706.17,340.10 708.33,340.10 710.50,340.10 712.67,340.09 714.83,340.09 717.00,340.09 719.17,340.09 721.33,340.08 723.50,340.08 725.67,340.08 727.83,340.08 730.00,340.07 732.17,340.07 734.33,340.07 736.50,340.07 738.67,340.07 740.83,340.06 743.00,340.06 745.17,340.06 747.33,340.06 749.50,340.06 751.67,340.06 753.83,340.05 756.00,340.05 758.17,340.05 760.33,340.05 762.50,340.05 764.67,340.05 766.83,340.05 769.00,340.04 771.17,340.04 773.33,340.04 775.50,340.04 777.67,340.04 779.83,340.04 782.00,340.04 784.17,340.04 786.33,340.03 788.50,340.03 790.67,340.03 792.83,340.03 795.00,340.03 797.17,340.03 799.33,340.03 801.50,340.03 803.67,340.03 805.83,340.03 808.00,340.03 810.17,340.03 812.33,340.02 814.50,340.02 816.67,340.02 818.83,340.02 821.00,340.02 823.17,340.02 825.33,340.02 827.50,340.02 829.67,340.02 831.83,340.02 834.00,340.03 836.17,340.04 838.33,340.06 840.50,340.09 842.67,340.12 844.83,340.16 847.00,340.20 849.17,340.25 851.33,340.31 853.50,340.37 855.67,340.43 857.83,340.50 860.00,340.58"/>
  <polyline fill="none" stroke="#b45309" stroke-width="2.4" points="80.00,510.00 82.17,509.59 84.33,509.20 86.50,508.82 88.67,508.44 90.83,508.08 93.00,507.73 95.17,507.39 97.33,507.06 99.50,506.74 101.67,506.42 103.83,506.12 106.00,505.82 108.17,505.54 110.33,505.26 112.50,504.98 114.67,504.72 116.83,504.46 119.00,504.21 121.17,503.97 123.33,503.73 125.50,503.50 127.67,503.27 129.83,503.05 132.00,502.84 134.17,502.63 136.33,502.43 138.50,502.23 140.67,502.04 142.83,501.85 145.00,501.67 147.17,501.50 149.33,501.33 151.50,501.16 153.67,501.00 155.83,500.84 158.00,500.68 160.17,500.53 162.33,500.39 164.50,500.25 166.67,500.11 168.83,499.98 171.00,499.85 173.17,499.73 175.33,499.61 177.50,499.49 179.67,499.38 181.83,499.27 184.00,499.16 186.17,499.06 188.33,498.97 190.50,498.87 192.67,498.78 194.83,498.70 197.00,498.61 199.17,498.53 201.33,498.46 203.50,498.39 205.67,498.32 207.83,498.26 210.00,498.20 212.17,498.14 214.33,498.09 216.50,498.04 218.67,497.99 220.83,497.95 223.00,497.91 225.17,497.88 227.33,497.84 229.50,497.82 231.67,497.79 233.83,497.77 236.00,497.75 238.17,497.74 240.33,497.73 242.50,497.72 244.67,497.72 246.83,497.72 249.00,497.73 251.17,497.73 253.33,497.75 255.50,497.76 257.67,497.78 259.83,497.80 262.00,497.83 264.17,497.85 266.33,497.89 268.50,497.92 270.67,497.96 272.83,498.00 275.00,498.05 277.17,498.10 279.33,498.15 281.50,498.21 283.67,498.26 285.83,498.33 288.00,498.39 290.17,498.46 292.33,498.53 294.50,498.61 296.67,498.69 298.83,498.77 301.00,498.85 303.17,498.94 305.33,499.03 307.50,499.13 309.67,499.22 311.83,499.32 314.00,499.42 316.17,499.53 318.33,499.64 320.50,499.75 322.67,499.86 324.83,499.97 327.00,500.08 329.17,500.21 331.33,500.40 333.50,500.63 335.67,499.09 337.83,496.70 340.00,495.27 342.17,495.65 344.33,496.02 346.50,496.38 348.67,495.86 350.83,496.24 353.00,496.60 355.17,496.94 357.33,497.27 359.50,497.61 361.67,497.95 363.83,498.28 366.00,498.62 368.17,498.95 370.33,499.27 372.50,499.58 374.67,499.88 376.83,500.17 379.00,500.46 381.17,500.74 383.33,501.00 385.50,501.27 387.67,501.52 389.83,501.76 392.00,502.00 394.17,502.24 396.33,502.46 398.50,502.68 400.67,502.89 402.83,503.10 405.00,503.30 407.17,503.49 409.33,503.68 411.50,503.86 413.67,504.04 415.83,504.21 418.00,504.38 420.17,504.55 422.33,504.70 424.50,504.86 426.67,505.01 428.83,505.15 431.00,505.29 433.17,505.43 435.33,505.56 437.50,505.69 439.67,505.81 441.83,505.94 444.00,506.05 446.17,506.17 448.33,506.28 450.50,506.39 452.67,506.49 454.83,506.59 457.00,506.69 459.17,506.79 461.33,506.88 463.50,506.97 465.67,507.06 467.83,507.15 470.00,507.23 472.17,507.31 474.33,507.39 476.50,507.46 478.67,507.54 480.83,507.61 483.00,507.68 485.17,507.74 487.33,507.81 489.50,507.87 491.67,507.93 493.83,507.99 496.00,508.05 498.17,508.11 500.33,508.16 502.50,508.22 504.67,508.27 506.83,508.32 509.00,508.37 511.17,508.42 513.33,508.46 515.50,508.51 517.67,508.55 519.83,508.59 522.00,508.63 524.17,508.67 526.33,508.71 528.50,508.75 530.67,508.78 532.83,508.82 535.00,508.85 537.17,508.89 539.33,508.92 541.50,508.95 543.67,508.98 545.83,509.01 548.00,509.04 550.17,509.07 552.33,509.09 554.50,509.12 556.67,509.15 558.83,509.17 561.00,509.19 563.17,509.22 565.33,509.24 567.50,509.26 569.67,509.28 571.83,509.30 574.00,509.32 576.17,509.34 578.33,509.36 580.50,509.38 582.67,509.40 584.83,509.42 587.00,509.43 589.17,509.45 591.33,509.47 593.50,509.48 595.67,509.50 597.83,509.51 600.00,509.53 602.17,509.54 604.33,509.55 606.50,509.57 608.67,509.58 610.83,509.59 613.00,509.60 615.17,509.61 617.33,509.63 619.50,509.64 621.67,509.65 623.83,509.66 626.00,509.67 628.17,509.68 630.33,509.69 632.50,509.70 634.67,509.70 636.83,509.71 639.00,509.72 641.17,509.73 643.33,509.74 645.50,509.74 647.67,509.75 649.83,509.76 652.00,509.77 654.17,509.77 656.33,509.78 658.50,509.79 660.67,509.79 662.83,509.80 665.00,509.80 667.17,509.81 669.33,509.82 671.50,509.82 673.67,509.83 675.83,509.83 678.00,509.84 680.17,509.84 682.33,509.85 684.50,509.85 686.67,509.85 688.83,509.86 691.00,509.86 693.17,509.87 695.33,509.87 697.50,509.87 699.67,509.88 701.83,509.88 704.00,509.88 706.17,509.89 708.33,509.89 710.50,509.89 712.67,509.90 714.83,509.90 717.00,509.90 719.17,509.91 721.33,509.91 723.50,509.91 725.67,509.91 727.83,509.92 730.00,509.92 732.17,509.92 734.33,509.92 736.50,509.93 738.67,509.93 740.83,509.93 743.00,509.93 745.17,509.93 747.33,509.94 749.50,509.94 751.67,509.94 753.83,509.94 756.00,509.94 758.17,509.94 760.33,509.95 762.50,509.95 764.67,509.95 766.83,509.95 769.00,509.95 771.17,509.95 773.33,509.95 775.50,509.96 777.67,509.96 779.83,509.96 782.00,509.96 784.17,509.96 786.33,509.96 788.50,509.96 790.67,509.96 792.83,509.97 795.00,509.97 797.17,509.97 799.33,509.97 801.50,509.97 803.67,509.97 805.83,509.97 808.00,509.97 810.17,509.97 812.33,509.97 814.50,509.97 816.67,509.98 818.83,509.98 821.00,509.98 823.17,509.98 825.33,509.98 827.50,509.98 829.67,509.98 831.83,509.98 834.00,509.97 836.17,509.96 838.33,509.94 840.50,509.91 842.67,509.87 844.83,509.83 847.00,509.78 849.17,509.73 851.33,509.67 853.50,509.60 855.67,509.53 857.83,509.45 860.00,509.37"/>
  <text x="640" y="358" font-size="13" font-family="Georgia" fill="#1d4ed8">entropy</text>
  <text x="640" y="376" font-size="13" font-family="Georgia" fill="#7c3aed">alpha_G(S)</text>
  <text x="640" y="394" font-size="13" font-family="Georgia" fill="#b45309">mu_G(S)</text>
  <text x="80" y="578" font-size="18" font-family="Georgia">BZ observables</text>
<line x1="80" y1="590" x2="80" y2="760" stroke="#1f2937" stroke-width="1.5"/>
<line x1="80" y1="760" x2="860" y2="760" stroke="#1f2937" stroke-width="1.5"/>
<line x1="340.00" y1="590" x2="340.00" y2="760" stroke="#b45309" stroke-width="1.2" stroke-dasharray="6 6"/>
<text x="348.00" y="606" font-size="12" fill="#92400e" font-family="Georgia">slip burst</text>
  <polyline fill="none" stroke="#0f766e" stroke-width="2.4" points="80.00,729.40 82.17,729.40 84.33,729.40 86.50,729.40 88.67,729.40 90.83,729.40 93.00,729.40 95.17,729.40 97.33,729.40 99.50,729.40 101.67,729.40 103.83,729.40 106.00,729.40 108.17,729.40 110.33,729.40 112.50,729.40 114.67,729.40 116.83,729.40 119.00,729.40 121.17,729.40 123.33,729.40 125.50,729.40 127.67,729.40 129.83,729.40 132.00,729.40 134.17,729.40 136.33,729.40 138.50,729.40 140.67,729.40 142.83,729.40 145.00,729.40 147.17,729.40 149.33,729.40 151.50,729.40 153.67,729.40 155.83,729.40 158.00,729.40 160.17,729.40 162.33,729.40 164.50,729.40 166.67,729.40 168.83,729.40 171.00,729.40 173.17,729.40 175.33,729.40 177.50,729.40 179.67,729.40 181.83,729.40 184.00,729.40 186.17,729.40 188.33,729.40 190.50,729.40 192.67,729.40 194.83,729.40 197.00,729.40 199.17,729.40 201.33,729.40 203.50,729.40 205.67,729.40 207.83,729.40 210.00,729.40 212.17,729.40 214.33,729.40 216.50,729.40 218.67,729.40 220.83,729.40 223.00,729.40 225.17,729.40 227.33,729.40 229.50,729.40 231.67,729.40 233.83,729.40 236.00,729.40 238.17,729.40 240.33,729.40 242.50,729.40 244.67,729.40 246.83,729.40 249.00,729.40 251.17,729.40 253.33,729.40 255.50,729.40 257.67,729.40 259.83,729.40 262.00,729.40 264.17,729.40 266.33,729.40 268.50,729.40 270.67,729.40 272.83,729.40 275.00,729.40 277.17,729.40 279.33,729.40 281.50,729.40 283.67,729.40 285.83,729.40 288.00,729.40 290.17,729.40 292.33,729.40 294.50,729.40 296.67,729.40 298.83,729.40 301.00,729.40 303.17,729.40 305.33,729.40 307.50,729.40 309.67,729.40 311.83,729.39 314.00,729.35 316.17,729.23 318.33,728.90 320.50,728.05 322.67,726.16 324.83,722.37 327.00,715.63 329.17,705.10 331.33,690.72 333.50,673.87 335.67,657.50 337.83,645.45 340.00,641.00 342.17,645.45 344.33,657.50 346.50,673.87 348.67,690.72 350.83,705.10 353.00,715.63 355.17,722.37 357.33,726.16 359.50,728.05 361.67,728.90 363.83,729.23 366.00,729.35 368.17,729.39 370.33,729.40 372.50,729.40 374.67,729.40 376.83,729.40 379.00,729.40 381.17,729.40 383.33,729.40 385.50,729.40 387.67,729.40 389.83,729.40 392.00,729.40 394.17,729.40 396.33,729.40 398.50,729.40 400.67,729.40 402.83,729.40 405.00,729.40 407.17,729.40 409.33,729.40 411.50,729.40 413.67,729.40 415.83,729.40 418.00,729.40 420.17,729.40 422.33,729.40 424.50,729.40 426.67,729.40 428.83,729.40 431.00,729.40 433.17,729.40 435.33,729.40 437.50,729.40 439.67,729.40 441.83,729.40 444.00,729.40 446.17,729.40 448.33,729.40 450.50,729.40 452.67,729.40 454.83,729.40 457.00,729.40 459.17,729.40 461.33,729.40 463.50,729.40 465.67,729.40 467.83,729.40 470.00,729.40 472.17,729.40 474.33,729.40 476.50,729.40 478.67,729.40 480.83,729.40 483.00,729.40 485.17,729.40 487.33,729.40 489.50,729.40 491.67,729.40 493.83,729.40 496.00,729.40 498.17,729.40 500.33,729.40 502.50,729.40 504.67,729.40 506.83,729.40 509.00,729.40 511.17,729.40 513.33,729.40 515.50,729.40 517.67,729.40 519.83,729.40 522.00,729.40 524.17,729.40 526.33,729.40 528.50,729.40 530.67,729.40 532.83,729.40 535.00,729.40 537.17,729.40 539.33,729.40 541.50,729.40 543.67,729.40 545.83,729.40 548.00,729.40 550.17,729.40 552.33,729.40 554.50,729.40 556.67,729.40 558.83,729.40 561.00,729.40 563.17,729.40 565.33,729.40 567.50,729.40 569.67,729.40 571.83,729.40 574.00,729.40 576.17,729.40 578.33,729.40 580.50,729.40 582.67,729.40 584.83,729.40 587.00,729.40 589.17,729.40 591.33,729.40 593.50,729.40 595.67,729.40 597.83,729.40 600.00,729.40 602.17,729.40 604.33,729.40 606.50,729.40 608.67,729.40 610.83,729.40 613.00,729.40 615.17,729.40 617.33,729.40 619.50,729.40 621.67,729.40 623.83,729.40 626.00,729.40 628.17,729.40 630.33,729.40 632.50,729.40 634.67,729.40 636.83,729.40 639.00,729.40 641.17,729.40 643.33,729.40 645.50,729.40 647.67,729.40 649.83,729.40 652.00,729.40 654.17,729.40 656.33,729.40 658.50,729.40 660.67,729.40 662.83,729.40 665.00,729.40 667.17,729.40 669.33,729.40 671.50,729.40 673.67,729.40 675.83,729.40 678.00,729.40 680.17,729.40 682.33,729.40 684.50,729.40 686.67,729.40 688.83,729.40 691.00,729.40 693.17,729.40 695.33,729.40 697.50,729.40 699.67,729.40 701.83,729.40 704.00,729.40 706.17,729.40 708.33,729.40 710.50,729.40 712.67,729.40 714.83,729.40 717.00,729.40 719.17,729.40 721.33,729.40 723.50,729.40 725.67,729.40 727.83,729.40 730.00,729.40 732.17,729.40 734.33,729.40 736.50,729.40 738.67,729.40 740.83,729.40 743.00,729.40 745.17,729.40 747.33,729.40 749.50,729.40 751.67,729.40 753.83,729.40 756.00,729.40 758.17,729.40 760.33,729.40 762.50,729.40 764.67,729.40 766.83,729.40 769.00,729.40 771.17,729.40 773.33,729.40 775.50,729.40 777.67,729.40 779.83,729.40 782.00,729.40 784.17,729.40 786.33,729.40 788.50,729.40 790.67,729.40 792.83,729.40 795.00,729.40 797.17,729.40 799.33,729.40 801.50,729.40 803.67,729.40 805.83,729.40 808.00,729.40 810.17,729.40 812.33,729.40 814.50,729.40 816.67,729.40 818.83,729.40 821.00,729.40 823.17,729.40 825.33,729.40 827.50,729.40 829.67,729.40 831.83,729.40 834.00,729.40 836.17,729.40 838.33,729.40 840.50,729.40 842.67,729.40 844.83,729.40 847.00,729.40 849.17,729.40 851.33,729.40 853.50,729.40 855.67,729.40 857.83,729.40 860.00,729.40"/>
  <polyline fill="none" stroke="#dc2626" stroke-width="2.4" points="80.00,760.00 82.17,760.00 84.33,760.00 86.50,760.00 88.67,760.00 90.83,760.00 93.00,760.00 95.17,760.00 97.33,760.00 99.50,760.00 101.67,760.00 103.83,760.00 106.00,760.00 108.17,760.00 110.33,760.00 112.50,760.00 114.67,760.00 116.83,760.00 119.00,760.00 121.17,760.00 123.33,760.00 125.50,760.00 127.67,760.00 129.83,760.00 132.00,760.00 134.17,760.00 136.33,760.00 138.50,760.00 140.67,760.00 142.83,760.00 145.00,760.00 147.17,760.00 149.33,760.00 151.50,760.00 153.67,760.00 155.83,760.00 158.00,760.00 160.17,760.00 162.33,760.00 164.50,760.00 166.67,760.00 168.83,760.00 171.00,760.00 173.17,760.00 175.33,760.00 177.50,760.00 179.67,760.00 181.83,760.00 184.00,760.00 186.17,760.00 188.33,760.00 190.50,760.00 192.67,760.00 194.83,760.00 197.00,760.00 199.17,760.00 201.33,760.00 203.50,760.00 205.67,760.00 207.83,760.00 210.00,760.00 212.17,760.00 214.33,760.00 216.50,760.00 218.67,760.00 220.83,760.00 223.00,760.00 225.17,760.00 227.33,760.00 229.50,760.00 231.67,760.00 233.83,760.00 236.00,760.00 238.17,760.00 240.33,760.00 242.50,760.00 244.67,760.00 246.83,760.00 249.00,760.00 251.17,760.00 253.33,760.00 255.50,760.00 257.67,760.00 259.83,760.00 262.00,760.00 264.17,760.00 266.33,760.00 268.50,760.00 270.67,760.00 272.83,760.00 275.00,760.00 277.17,760.00 279.33,760.00 281.50,760.00 283.67,760.00 285.83,760.00 288.00,760.00 290.17,760.00 292.33,760.00 294.50,760.00 296.67,760.00 298.83,760.00 301.00,760.00 303.17,760.00 305.33,760.00 307.50,760.00 309.67,760.00 311.83,760.00 314.00,760.00 316.17,760.00 318.33,760.00 320.50,760.00 322.67,760.00 324.83,760.00 327.00,760.00 329.17,760.00 331.33,760.00 333.50,646.67 335.67,590.00 337.83,646.67 340.00,760.00 342.17,760.00 344.33,760.00 346.50,703.33 348.67,760.00 350.83,760.00 353.00,760.00 355.17,760.00 357.33,760.00 359.50,760.00 361.67,760.00 363.83,760.00 366.00,760.00 368.17,760.00 370.33,760.00 372.50,760.00 374.67,760.00 376.83,760.00 379.00,760.00 381.17,760.00 383.33,760.00 385.50,760.00 387.67,760.00 389.83,760.00 392.00,760.00 394.17,760.00 396.33,760.00 398.50,760.00 400.67,760.00 402.83,760.00 405.00,760.00 407.17,760.00 409.33,760.00 411.50,760.00 413.67,760.00 415.83,760.00 418.00,760.00 420.17,760.00 422.33,760.00 424.50,760.00 426.67,760.00 428.83,760.00 431.00,760.00 433.17,760.00 435.33,760.00 437.50,760.00 439.67,760.00 441.83,760.00 444.00,760.00 446.17,760.00 448.33,760.00 450.50,760.00 452.67,760.00 454.83,760.00 457.00,760.00 459.17,760.00 461.33,760.00 463.50,760.00 465.67,760.00 467.83,760.00 470.00,760.00 472.17,760.00 474.33,760.00 476.50,760.00 478.67,760.00 480.83,760.00 483.00,760.00 485.17,760.00 487.33,760.00 489.50,760.00 491.67,760.00 493.83,760.00 496.00,760.00 498.17,760.00 500.33,760.00 502.50,760.00 504.67,760.00 506.83,760.00 509.00,760.00 511.17,760.00 513.33,760.00 515.50,760.00 517.67,760.00 519.83,760.00 522.00,760.00 524.17,760.00 526.33,760.00 528.50,760.00 530.67,760.00 532.83,760.00 535.00,760.00 537.17,760.00 539.33,760.00 541.50,760.00 543.67,760.00 545.83,760.00 548.00,760.00 550.17,760.00 552.33,760.00 554.50,760.00 556.67,760.00 558.83,760.00 561.00,760.00 563.17,760.00 565.33,760.00 567.50,760.00 569.67,760.00 571.83,760.00 574.00,760.00 576.17,760.00 578.33,760.00 580.50,760.00 582.67,760.00 584.83,760.00 587.00,760.00 589.17,760.00 591.33,760.00 593.50,760.00 595.67,760.00 597.83,760.00 600.00,760.00 602.17,760.00 604.33,760.00 606.50,760.00 608.67,760.00 610.83,760.00 613.00,760.00 615.17,760.00 617.33,760.00 619.50,760.00 621.67,760.00 623.83,760.00 626.00,760.00 628.17,760.00 630.33,760.00 632.50,760.00 634.67,760.00 636.83,760.00 639.00,760.00 641.17,760.00 643.33,760.00 645.50,760.00 647.67,760.00 649.83,760.00 652.00,760.00 654.17,760.00 656.33,760.00 658.50,760.00 660.67,760.00 662.83,760.00 665.00,760.00 667.17,760.00 669.33,760.00 671.50,760.00 673.67,760.00 675.83,760.00 678.00,760.00 680.17,760.00 682.33,760.00 684.50,760.00 686.67,760.00 688.83,760.00 691.00,760.00 693.17,760.00 695.33,760.00 697.50,760.00 699.67,760.00 701.83,760.00 704.00,760.00 706.17,760.00 708.33,760.00 710.50,760.00 712.67,760.00 714.83,760.00 717.00,760.00 719.17,760.00 721.33,760.00 723.50,760.00 725.67,760.00 727.83,760.00 730.00,760.00 732.17,760.00 734.33,760.00 736.50,760.00 738.67,760.00 740.83,760.00 743.00,760.00 745.17,760.00 747.33,760.00 749.50,760.00 751.67,760.00 753.83,760.00 756.00,760.00 758.17,760.00 760.33,760.00 762.50,760.00 764.67,760.00 766.83,760.00 769.00,760.00 771.17,760.00 773.33,760.00 775.50,760.00 777.67,760.00 779.83,760.00 782.00,760.00 784.17,760.00 786.33,760.00 788.50,760.00 790.67,760.00 792.83,760.00 795.00,760.00 797.17,760.00 799.33,760.00 801.50,760.00 803.67,760.00 805.83,760.00 808.00,760.00 810.17,760.00 812.33,760.00 814.50,760.00 816.67,760.00 818.83,760.00 821.00,760.00 823.17,760.00 825.33,760.00 827.50,760.00 829.67,760.00 831.83,760.00 834.00,760.00 836.17,760.00 838.33,760.00 840.50,760.00 842.67,760.00 844.83,760.00 847.00,760.00 849.17,760.00 851.33,760.00 853.50,760.00 855.67,760.00 857.83,760.00 860.00,760.00"/>
  <text x="640" y="608" font-size="13" font-family="Georgia" fill="#0f766e">epsilon_eff</text>
  <text x="640" y="626" font-size="13" font-family="Georgia" fill="#dc2626">normalized slip activity</text>
</svg>
