<svg xmlns="http://www.w3.org/2000/svg" width="940" height="620" viewBox="0 0 940 620" role="img" aria-labelledby="title desc">
  <title id="title">FHS/QWZ topological readout for the entropy-gated conductance model</title>
  <desc id="desc">Effective mass, spectral gap, and Chern-number readout derived from the simulated conductance trajectory.</desc>
  <rect width="100%" height="100%" fill="#f8fafc"/>
  <text x="80" y="42" font-size="28" font-family="Georgia" fill="#0f172a">Topological Readout</text>
  <text x="80" y="66" font-size="14" font-family="Georgia" fill="#334155">FHS readout of an effective QWZ Hamiltonian driven by the BZ ruler, entropy, and conductance trajectories.</text>
  <text x="80" y="78" font-size="18" font-family="Georgia">Effective mass</text>
<line x1="80" y1="90" x2="80" y2="260" stroke="#1f2937" stroke-width="1.5"/>
<line x1="80" y1="260" x2="860" y2="260" stroke="#1f2937" stroke-width="1.5"/>
<line x1="340.00" y1="90" x2="340.00" y2="260" stroke="#b45309" stroke-width="1.2" stroke-dasharray="6 6"/>
<text x="348.00" y="106" font-size="12" fill="#92400e" font-family="Georgia">slip burst</text>
  <polyline fill="none" stroke="#9a3412" stroke-width="2.5" points="80.00,164.11 82.17,164.57 84.33,165.03 86.50,165.47 88.67,165.91 90.83,166.35 93.00,166.78 95.17,167.21 97.33,167.64 99.50,168.07 101.67,168.51 103.83,168.94 106.00,169.38 108.17,169.82 110.33,170.26 112.50,170.71 114.67,171.16 116.83,171.62 119.00,172.08 121.17,172.55 123.33,173.02 125.50,173.50 127.67,173.98 129.83,174.46 132.00,174.95 134.17,175.44 136.33,175.94 138.50,176.43 140.67,176.93 142.83,177.44 145.00,177.94 147.17,178.45 149.33,178.96 151.50,179.46 153.67,179.97 155.83,180.48 158.00,180.99 160.17,181.50 162.33,182.00 164.50,182.50 166.67,183.00 168.83,183.50 171.00,184.00 173.17,184.49 175.33,184.97 177.50,185.46 179.67,185.93 181.83,186.40 184.00,186.87 186.17,187.33 188.33,187.79 190.50,188.23 192.67,188.67 194.83,189.11 197.00,189.53 199.17,189.95 201.33,190.36 203.50,190.76 205.67,191.16 207.83,191.54 210.00,191.92 212.17,192.29 214.33,192.65 216.50,193.00 218.67,193.34 220.83,193.67 223.00,193.99 225.17,194.30 227.33,194.60 229.50,194.89 231.67,195.18 233.83,195.45 236.00,195.72 238.17,195.97 240.33,196.21 242.50,196.45 244.67,196.68 246.83,196.89 249.00,197.10 251.17,197.30 253.33,197.49 255.50,197.67 257.67,197.84 259.83,198.00 262.00,198.16 264.17,198.30 266.33,198.44 268.50,198.57 270.67,198.69 272.83,198.80 275.00,198.91 277.17,199.01 279.33,199.10 281.50,199.18 283.67,199.26 285.83,199.33 288.00,199.40 290.17,199.46 292.33,199.51 294.50,199.55 296.67,199.60 298.83,199.63 301.00,199.66 303.17,199.69 305.33,199.71 307.50,199.73 309.67,199.74 311.83,199.74 314.00,199.73 316.17,199.69 318.33,199.56 320.50,199.25 322.67,198.59 324.83,197.35 327.00,195.29 329.17,191.42 331.33,181.67 333.50,162.89 335.67,134.67 337.83,103.72 340.00,90.00 342.17,110.19 344.33,148.78 346.50,185.87 348.67,212.78 350.83,229.33 353.00,237.28 355.17,240.19 357.33,240.64 359.50,239.99 361.67,238.85 363.83,237.52 366.00,236.14 368.17,234.76 370.33,233.41 372.50,232.10 374.67,230.83 376.83,229.61 379.00,228.43 381.17,227.29 383.33,226.19 385.50,225.13 387.67,224.11 389.83,223.12 392.00,222.17 394.17,221.25 396.33,220.37 398.50,219.52 400.67,218.71 402.83,217.92 405.00,217.17 407.17,216.44 409.33,215.75 411.50,215.08 413.67,214.44 415.83,213.82 418.00,213.23 420.17,212.66 422.33,212.12 424.50,211.60 426.67,211.10 428.83,210.62 431.00,210.17 433.17,209.73 435.33,209.31 437.50,208.91 439.67,208.53 441.83,208.16 444.00,207.81 446.17,207.48 448.33,207.16 450.50,206.85 452.67,206.56 454.83,206.28 457.00,206.01 459.17,205.76 461.33,205.51 463.50,205.28 465.67,205.05 467.83,204.84 470.00,204.63 472.17,204.43 474.33,204.24 476.50,204.06 478.67,203.88 480.83,203.71 483.00,203.55 485.17,203.39 487.33,203.24 489.50,203.09 491.67,202.94 493.83,202.80 496.00,202.67 498.17,202.53 500.33,202.40 502.50,202.28 504.67,202.15 506.83,202.03 509.00,201.91 511.17,201.79 513.33,201.67 515.50,201.55 517.67,201.44 519.83,201.32 522.00,201.21 524.17,201.09 526.33,200.98 528.50,200.87 530.67,200.75 532.83,200.64 535.00,200.53 537.17,200.41 539.33,200.30 541.50,200.19 543.67,200.07 545.83,199.96 548.00,199.84 550.17,199.72 552.33,199.61 554.50,199.49 556.67,199.37 558.83,199.25 561.00,199.13 563.17,199.02 565.33,198.89 567.50,198.77 569.67,198.65 571.83,198.53 574.00,198.41 576.17,198.29 578.33,198.16 580.50,198.04 582.67,197.92 584.83,197.79 587.00,197.67 589.17,197.55 591.33,197.42 593.50,197.30 595.67,197.18 597.83,197.06 600.00,196.94 602.17,196.81 604.33,196.69 606.50,196.58 608.67,196.46 610.83,196.34 613.00,196.22 615.17,196.11 617.33,196.00 619.50,195.89 621.67,195.78 623.83,195.67 626.00,195.56 628.17,195.46 630.33,195.36 632.50,195.26 634.67,195.16 636.83,195.07 639.00,194.97 641.17,194.89 643.33,194.80 645.50,194.72 647.67,194.64 649.83,194.56 652.00,194.49 654.17,194.42 656.33,194.36 658.50,194.29 660.67,194.24 662.83,194.18 665.00,194.13 667.17,194.09 669.33,194.05 671.50,194.01 673.67,193.98 675.83,193.95 678.00,193.93 680.17,193.91 682.33,193.90 684.50,193.89 686.67,193.88 688.83,193.88 691.00,193.89 693.17,193.90 695.33,193.91 697.50,193.93 699.67,193.96 701.83,193.99 704.00,194.02 706.17,194.06 708.33,194.10 710.50,194.15 712.67,194.20 714.83,194.26 717.00,194.32 719.17,194.39 721.33,194.46 723.50,194.54 725.67,194.62 727.83,194.70 730.00,194.79 732.17,194.88 734.33,194.97 736.50,195.07 738.67,195.17 740.83,195.28 743.00,195.38 745.17,195.49 747.33,195.61 749.50,195.72 751.67,195.84 753.83,195.96 756.00,196.08 758.17,196.20 760.33,196.33 762.50,196.45 764.67,196.58 766.83,196.71 769.00,196.84 771.17,196.96 773.33,197.09 775.50,197.22 777.67,197.35 779.83,197.48 782.00,197.61 784.17,197.73 786.33,197.86 788.50,197.98 790.67,198.10 792.83,198.22 795.00,198.34 797.17,198.46 799.33,198.57 801.50,198.68 803.67,198.79 805.83,198.89 808.00,199.00 810.17,199.10 812.33,199.19 814.50,199.28 816.67,199.37 818.83,199.46 821.00,199.54 823.17,199.61 825.33,199.68 827.50,199.75 829.67,199.82 831.83,199.88 834.00,199.96 836.17,200.03 838.33,200.11 840.50,200.19 842.67,200.28 844.83,200.37 847.00,200.46 849.17,200.55 851.33,200.64 853.50,200.74 855.67,200.83 857.83,200.93 860.00,201.03"/>
  <polyline fill="none" stroke="#065f46" stroke-width="2.5" points="80.00,164.11 82.17,164.60 84.33,165.10 86.50,165.62 88.67,166.15 90.83,166.70 93.00,167.27 95.17,167.85 97.33,168.44 99.50,169.06 101.67,169.69 103.83,170.33 106.00,170.99 108.17,171.67 110.33,172.36 112.50,173.07 114.67,173.79 116.83,174.52 119.00,175.27 121.17,176.03 123.33,176.80 125.50,177.58 127.67,178.37 129.83,179.17 132.00,179.98 134.17,180.80 136.33,181.62 138.50,182.45 140.67,183.28 142.83,184.12 145.00,184.96 147.17,185.81 149.33,186.66 151.50,187.50 153.67,188.35 155.83,189.20 158.00,190.05 160.17,190.89 162.33,191.74 164.50,192.58 166.67,193.41 168.83,194.24 171.00,195.06 173.17,195.88 175.33,196.69 177.50,197.50 179.67,198.30 181.83,199.08 184.00,199.86 186.17,200.63 188.33,201.39 190.50,202.14 192.67,202.88 194.83,203.60 197.00,204.32 199.17,205.02 201.33,205.71 203.50,206.38 205.67,207.04 207.83,207.69 210.00,208.33 212.17,208.95 214.33,209.55 216.50,210.15 218.67,210.72 220.83,211.28 223.00,211.83 225.17,212.36 227.33,212.88 229.50,213.38 231.67,213.86 233.83,214.33 236.00,214.78 238.17,215.22 240.33,215.64 242.50,216.05 244.67,216.44 246.83,216.81 249.00,217.17 251.17,217.51 253.33,217.84 255.50,218.15 257.67,218.45 259.83,218.73 262.00,218.99 264.17,219.24 266.33,219.48 268.50,219.70 270.67,219.91 272.83,220.10 275.00,220.27 277.17,220.44 279.33,220.59 281.50,220.72 283.67,220.84 285.83,220.95 288.00,221.05 290.17,221.13 292.33,221.20 294.50,221.26 296.67,221.30 298.83,221.33 301.00,221.35 303.17,221.36 305.33,221.36 307.50,221.35 309.67,221.32 311.83,221.28 314.00,221.22 316.17,221.12 318.33,220.93 320.50,220.54 322.67,219.78 324.83,218.41 327.00,216.17 329.17,212.03 331.33,202.03 333.50,183.04 335.67,154.66 337.83,123.61 340.00,109.85 342.17,129.98 344.33,168.52 346.50,205.56 348.67,232.38 350.83,248.79 353.00,256.66 355.17,259.54 357.33,260.00 359.50,259.34 361.67,258.19 363.83,256.84 366.00,255.41 368.17,253.99 370.33,252.58 372.50,251.21 374.67,249.86 376.83,248.54 379.00,247.25 381.17,245.99 383.33,244.76 385.50,243.56 387.67,242.39 389.83,241.25 392.00,240.13 394.17,239.05 396.33,237.99 398.50,236.95 400.67,235.94 402.83,234.96 405.00,234.00 407.17,233.07 409.33,232.16 411.50,231.28 413.67,230.42 415.83,229.58 418.00,228.76 420.17,227.97 422.33,227.19 424.50,226.44 426.67,225.71 428.83,225.00 431.00,224.31 433.17,223.63 435.33,222.98 437.50,222.34 439.67,221.72 441.83,221.12 444.00,220.53 446.17,219.96 448.33,219.41 450.50,218.87 452.67,218.34 454.83,217.83 457.00,217.33 459.17,216.85 461.33,216.38 463.50,215.92 465.67,215.47 467.83,215.03 470.00,214.61 472.17,214.19 474.33,213.79 476.50,213.39 478.67,213.01 480.83,212.63 483.00,212.26 485.17,211.90 487.33,211.55 489.50,211.20 491.67,210.87 493.83,210.54 496.00,210.21 498.17,209.90 500.33,209.58 502.50,209.28 504.67,208.98 506.83,208.68 509.00,208.39 511.17,208.11 513.33,207.83 515.50,207.55 517.67,207.28 519.83,207.01 522.00,206.74 524.17,206.48 526.33,206.22 528.50,205.97 530.67,205.72 532.83,205.47 535.00,205.22 537.17,204.98 539.33,204.74 541.50,204.50 543.67,204.26 545.83,204.03 548.00,203.80 550.17,203.57 552.33,203.34 554.50,203.11 556.67,202.89 558.83,202.67 561.00,202.45 563.17,202.23 565.33,202.02 567.50,201.80 569.67,201.59 571.83,201.38 574.00,201.17 576.17,200.96 578.33,200.76 580.50,200.56 582.67,200.36 584.83,200.16 587.00,199.96 589.17,199.76 591.33,199.57 593.50,199.38 595.67,199.19 597.83,199.01 600.00,198.82 602.17,198.64 604.33,198.46 606.50,198.28 608.67,198.11 610.83,197.94 613.00,197.77 615.17,197.60 617.33,197.44 619.50,197.28 621.67,197.13 623.83,196.97 626.00,196.82 628.17,196.67 630.33,196.53 632.50,196.39 634.67,196.25 636.83,196.12 639.00,195.99 641.17,195.87 643.33,195.75 645.50,195.63 647.67,195.52 649.83,195.41 652.00,195.31 654.17,195.21 656.33,195.11 658.50,195.02 660.67,194.94 662.83,194.86 665.00,194.78 667.17,194.71 669.33,194.64 671.50,194.58 673.67,194.53 675.83,194.48 678.00,194.43 680.17,194.39 682.33,194.36 684.50,194.33 686.67,194.31 688.83,194.29 691.00,194.28 693.17,194.27 695.33,194.27 697.50,194.27 699.67,194.28 701.83,194.29 704.00,194.31 706.17,194.34 708.33,194.37 710.50,194.40 712.67,194.44 714.83,194.49 717.00,194.54 719.17,194.59 721.33,194.65 723.50,194.72 725.67,194.79 727.83,194.86 730.00,194.94 732.17,195.02 734.33,195.10 736.50,195.19 738.67,195.29 740.83,195.38 743.00,195.48 745.17,195.58 747.33,195.69 749.50,195.80 751.67,195.91 753.83,196.02 756.00,196.14 758.17,196.26 760.33,196.37 762.50,196.50 764.67,196.62 766.83,196.74 769.00,196.86 771.17,196.99 773.33,197.11 775.50,197.24 777.67,197.36 779.83,197.48 782.00,197.61 784.17,197.73 786.33,197.85 788.50,197.97 790.67,198.09 792.83,198.21 795.00,198.33 797.17,198.44 799.33,198.55 801.50,198.66 803.67,198.77 805.83,198.87 808.00,198.97 810.17,199.07 812.33,199.16 814.50,199.25 816.67,199.34 818.83,199.42 821.00,199.50 823.17,199.58 825.33,199.65 827.50,199.72 829.67,199.78 831.83,199.85 834.00,199.92 836.17,200.00 838.33,200.08 840.50,200.16 842.67,200.26 844.83,200.35 847.00,200.45 849.17,200.56 851.33,200.67 853.50,200.78 855.67,200.90 857.83,201.02 860.00,201.15"/>
  <text x="640" y="108" font-size="13" font-family="Georgia" fill="#9a3412">fixed-rate baseline mass</text>
  <text x="640" y="126" font-size="13" font-family="Georgia" fill="#065f46">entropy-gated mass</text>
  <text x="80" y="328" font-size="18" font-family="Georgia">Spectral gap and Chern number</text>
<line x1="80" y1="340" x2="80" y2="510" stroke="#1f2937" stroke-width="1.5"/>
<line x1="80" y1="510" x2="860" y2="510" stroke="#1f2937" stroke-width="1.5"/>
<line x1="340.00" y1="340" x2="340.00" y2="510" stroke="#b45309" stroke-width="1.2" stroke-dasharray="6 6"/>
<text x="348.00" y="356" font-size="12" fill="#92400e" font-family="Georgia">slip burst</text>
  <polyline fill="none" stroke="#1d4ed8" stroke-width="2.4" points="80.00,441.77 82.17,441.30 84.33,440.83 86.50,440.38 88.67,439.93 90.83,439.49 93.00,439.05 95.17,438.61 97.33,438.17 99.50,437.73 101.67,437.28 103.83,436.84 106.00,436.39 108.17,435.94 110.33,435.49 112.50,435.03 114.67,434.56 116.83,434.09 119.00,433.62 121.17,433.14 123.33,432.65 125.50,432.16 127.67,431.67 129.83,431.17 132.00,430.67 134.17,430.16 136.33,429.65 138.50,429.14 140.67,428.62 142.83,428.10 145.00,427.58 147.17,427.05 149.33,426.53 151.50,426.00 153.67,425.47 155.83,424.95 158.00,424.42 160.17,423.89 162.33,423.37 164.50,422.85 166.67,422.33 168.83,421.81 171.00,421.29 173.17,420.78 175.33,420.28 177.50,419.77 179.67,419.28 181.83,418.78 184.00,418.30 186.17,417.82 188.33,417.34 190.50,416.87 192.67,416.41 194.83,415.96 197.00,415.51 199.17,415.08 201.33,414.65 203.50,414.22 205.67,413.81 207.83,413.41 210.00,413.01 212.17,412.63 214.33,412.25 216.50,411.88 218.67,411.53 220.83,411.18 223.00,410.84 225.17,410.51 227.33,410.20 229.50,409.89 231.67,409.59 233.83,409.30 236.00,409.02 238.17,408.76 240.33,408.50 242.50,408.25 244.67,408.01 246.83,407.78 249.00,407.57 251.17,407.36 253.33,407.16 255.50,406.97 257.67,406.79 259.83,406.62 262.00,406.45 264.17,406.30 266.33,406.15 268.50,406.02 270.67,405.89 272.83,405.77 275.00,405.66 277.17,405.55 279.33,405.46 281.50,405.37 283.67,405.29 285.83,405.21 288.00,405.14 290.17,405.08 292.33,405.03 294.50,404.98 296.67,404.93 298.83,404.89 301.00,404.86 303.17,404.83 305.33,404.81 307.50,404.79 309.67,404.78 311.83,404.78 314.00,404.79 316.17,404.83 318.33,404.97 320.50,405.29 322.67,406.00 324.83,407.30 327.00,409.47 329.17,413.54 331.33,423.72 333.50,443.01 335.67,470.90 337.83,498.96 340.00,510.00 342.17,493.41 344.33,457.15 346.50,419.34 348.67,390.94 350.83,373.22 353.00,364.65 355.17,361.51 357.33,361.01 359.50,361.72 361.67,362.95 363.83,364.39 366.00,365.88 368.17,367.37 370.33,368.83 372.50,370.24 374.67,371.60 376.83,372.92 379.00,374.19 381.17,375.41 383.33,376.59 385.50,377.73 387.67,378.83 389.83,379.89 392.00,380.91 394.17,381.89 396.33,382.83 398.50,383.74 400.67,384.61 402.83,385.45 405.00,386.26 407.17,387.03 409.33,387.78 411.50,388.49 413.67,389.18 415.83,389.83 418.00,390.46 420.17,391.07 422.33,391.65 424.50,392.20 426.67,392.73 428.83,393.24 431.00,393.73 433.17,394.19 435.33,394.64 437.50,395.06 439.67,395.47 441.83,395.86 444.00,396.23 446.17,396.58 448.33,396.92 450.50,397.25 452.67,397.56 454.83,397.86 457.00,398.14 459.17,398.41 461.33,398.67 463.50,398.92 465.67,399.16 467.83,399.39 470.00,399.61 472.17,399.82 474.33,400.02 476.50,400.21 478.67,400.40 480.83,400.58 483.00,400.75 485.17,400.92 487.33,401.08 489.50,401.24 491.67,401.39 493.83,401.54 496.00,401.69 498.17,401.83 500.33,401.97 502.50,402.10 504.67,402.23 506.83,402.36 509.00,402.49 511.17,402.62 513.33,402.74 515.50,402.87 517.67,402.99 519.83,403.11 522.00,403.23 524.17,403.35 526.33,403.47 528.50,403.59 530.67,403.71 532.83,403.83 535.00,403.95 537.17,404.07 539.33,404.19 541.50,404.31 543.67,404.43 545.83,404.55 548.00,404.67 550.17,404.80 552.33,404.92 554.50,405.04 556.67,405.17 558.83,405.29 561.00,405.42 563.17,405.55 565.33,405.67 567.50,405.80 569.67,405.93 571.83,406.06 574.00,406.19 576.17,406.31 578.33,406.44 580.50,406.57 582.67,406.70 584.83,406.83 587.00,406.96 589.17,407.09 591.33,407.22 593.50,407.35 595.67,407.48 597.83,407.61 600.00,407.74 602.17,407.87 604.33,407.99 606.50,408.12 608.67,408.24 610.83,408.37 613.00,408.49 615.17,408.61 617.33,408.73 619.50,408.84 621.67,408.96 623.83,409.07 626.00,409.18 628.17,409.29 630.33,409.40 632.50,409.51 634.67,409.61 636.83,409.71 639.00,409.80 641.17,409.90 643.33,409.99 645.50,410.07 647.67,410.16 649.83,410.24 652.00,410.31 654.17,410.38 656.33,410.45 658.50,410.52 660.67,410.58 662.83,410.63 665.00,410.69 667.17,410.73 669.33,410.78 671.50,410.82 673.67,410.85 675.83,410.88 678.00,410.90 680.17,410.92 682.33,410.94 684.50,410.95 686.67,410.95 688.83,410.95 691.00,410.95 693.17,410.94 695.33,410.92 697.50,410.90 699.67,410.87 701.83,410.84 704.00,410.81 706.17,410.76 708.33,410.72 710.50,410.67 712.67,410.61 714.83,410.55 717.00,410.49 719.17,410.42 721.33,410.34 723.50,410.26 725.67,410.18 727.83,410.09 730.00,410.00 732.17,409.90 734.33,409.80 736.50,409.70 738.67,409.60 740.83,409.49 743.00,409.37 745.17,409.26 747.33,409.14 749.50,409.02 751.67,408.89 753.83,408.77 756.00,408.64 758.17,408.51 760.33,408.38 762.50,408.25 764.67,408.11 766.83,407.98 769.00,407.84 771.17,407.71 773.33,407.57 775.50,407.44 777.67,407.30 779.83,407.17 782.00,407.03 784.17,406.90 786.33,406.77 788.50,406.64 790.67,406.51 792.83,406.38 795.00,406.26 797.17,406.14 799.33,406.02 801.50,405.90 803.67,405.78 805.83,405.67 808.00,405.56 810.17,405.46 812.33,405.36 814.50,405.26 816.67,405.17 818.83,405.08 821.00,405.00 823.17,404.91 825.33,404.84 827.50,404.77 829.67,404.70 831.83,404.63 834.00,404.55 836.17,404.47 838.33,404.39 840.50,404.30 842.67,404.21 844.83,404.12 847.00,404.02 849.17,403.93 851.33,403.83 853.50,403.73 855.67,403.63 857.83,403.52 860.00,403.42"/>
  <polyline fill="none" stroke="#7c3aed" stroke-width="2.4" points="80.00,441.77 82.17,441.27 84.33,440.76 86.50,440.23 88.67,439.69 90.83,439.13 93.00,438.55 95.17,437.96 97.33,437.35 99.50,436.72 101.67,436.08 103.83,435.42 106.00,434.74 108.17,434.04 110.33,433.33 112.50,432.61 114.67,431.86 116.83,431.11 119.00,430.34 121.17,429.56 123.33,428.76 125.50,427.95 127.67,427.14 129.83,426.31 132.00,425.47 134.17,424.62 136.33,423.77 138.50,422.91 140.67,422.04 142.83,421.16 145.00,420.29 147.17,419.40 149.33,418.52 151.50,417.63 153.67,416.75 155.83,415.86 158.00,414.97 160.17,414.09 162.33,413.20 164.50,412.32 166.67,411.45 168.83,410.58 171.00,409.71 173.17,408.85 175.33,407.99 177.50,407.14 179.67,406.30 181.83,405.47 184.00,404.65 186.17,403.84 188.33,403.04 190.50,402.24 192.67,401.46 194.83,400.70 197.00,399.94 199.17,399.20 201.33,398.47 203.50,397.75 205.67,397.05 207.83,396.36 210.00,395.68 212.17,395.02 214.33,394.38 216.50,393.75 218.67,393.14 220.83,392.54 223.00,391.96 225.17,391.39 227.33,390.84 229.50,390.31 231.67,389.79 233.83,389.29 236.00,388.81 238.17,388.34 240.33,387.89 242.50,387.46 244.67,387.04 246.83,386.64 249.00,386.26 251.17,385.89 253.33,385.54 255.50,385.21 257.67,384.89 259.83,384.59 262.00,384.31 264.17,384.04 266.33,383.79 268.50,383.55 270.67,383.33 272.83,383.13 275.00,382.94 277.17,382.76 279.33,382.60 281.50,382.46 283.67,382.33 285.83,382.21 288.00,382.11 290.17,382.02 292.33,381.95 294.50,381.89 296.67,381.84 298.83,381.80 301.00,381.78 303.17,381.77 305.33,381.78 307.50,381.79 309.67,381.82 311.83,381.86 314.00,381.93 316.17,382.03 318.33,382.24 320.50,382.65 322.67,383.47 324.83,384.93 327.00,387.33 329.17,391.74 331.33,402.35 333.50,422.29 335.67,451.30 337.83,481.32 340.00,493.71 342.17,475.37 344.33,437.28 346.50,398.62 348.67,369.94 350.83,352.18 353.00,343.63 355.17,340.50 357.33,340.00 359.50,340.71 361.67,341.97 363.83,343.44 366.00,344.99 368.17,346.54 370.33,348.07 372.50,349.57 374.67,351.03 376.83,352.46 379.00,353.86 381.17,355.22 383.33,356.55 385.50,357.85 387.67,359.12 389.83,360.36 392.00,361.56 394.17,362.74 396.33,363.89 398.50,365.00 400.67,366.09 402.83,367.15 405.00,368.19 407.17,369.19 409.33,370.17 411.50,371.12 413.67,372.05 415.83,372.95 418.00,373.83 420.17,374.68 422.33,375.51 424.50,376.32 426.67,377.11 428.83,377.87 431.00,378.62 433.17,379.34 435.33,380.04 437.50,380.72 439.67,381.39 441.83,382.03 444.00,382.66 446.17,383.27 448.33,383.87 450.50,384.44 452.67,385.01 454.83,385.55 457.00,386.08 459.17,386.60 461.33,387.11 463.50,387.60 465.67,388.08 467.83,388.54 470.00,389.00 472.17,389.44 474.33,389.87 476.50,390.29 478.67,390.70 480.83,391.10 483.00,391.50 485.17,391.88 487.33,392.25 489.50,392.62 491.67,392.98 493.83,393.33 496.00,393.68 498.17,394.01 500.33,394.35 502.50,394.67 504.67,394.99 506.83,395.30 509.00,395.61 511.17,395.92 513.33,396.21 515.50,396.51 517.67,396.80 519.83,397.08 522.00,397.37 524.17,397.64 526.33,397.92 528.50,398.19 530.67,398.45 532.83,398.72 535.00,398.98 537.17,399.24 539.33,399.49 541.50,399.75 543.67,400.00 545.83,400.24 548.00,400.49 550.17,400.73 552.33,400.97 554.50,401.21 556.67,401.45 558.83,401.68 561.00,401.92 563.17,402.15 565.33,402.37 567.50,402.60 569.67,402.83 571.83,403.05 574.00,403.27 576.17,403.49 578.33,403.70 580.50,403.92 582.67,404.13 584.83,404.34 587.00,404.55 589.17,404.75 591.33,404.96 593.50,405.16 595.67,405.36 597.83,405.55 600.00,405.75 602.17,405.94 604.33,406.13 606.50,406.32 608.67,406.50 610.83,406.68 613.00,406.86 615.17,407.03 617.33,407.20 619.50,407.37 621.67,407.54 623.83,407.70 626.00,407.86 628.17,408.01 630.33,408.17 632.50,408.31 634.67,408.46 636.83,408.60 639.00,408.73 641.17,408.86 643.33,408.99 645.50,409.11 647.67,409.23 649.83,409.35 652.00,409.46 654.17,409.56 656.33,409.66 658.50,409.75 660.67,409.84 662.83,409.93 665.00,410.01 667.17,410.08 669.33,410.15 671.50,410.21 673.67,410.27 675.83,410.33 678.00,410.37 680.17,410.41 682.33,410.45 684.50,410.48 686.67,410.51 688.83,410.52 691.00,410.54 693.17,410.55 695.33,410.55 697.50,410.54 699.67,410.53 701.83,410.52 704.00,410.50 706.17,410.47 708.33,410.44 710.50,410.40 712.67,410.36 714.83,410.31 717.00,410.26 719.17,410.20 721.33,410.14 723.50,410.07 725.67,410.00 727.83,409.92 730.00,409.84 732.17,409.76 734.33,409.67 736.50,409.57 738.67,409.48 740.83,409.37 743.00,409.27 745.17,409.16 747.33,409.05 749.50,408.94 751.67,408.82 753.83,408.70 756.00,408.58 758.17,408.45 760.33,408.33 762.50,408.20 764.67,408.07 766.83,407.94 769.00,407.81 771.17,407.68 773.33,407.55 775.50,407.42 777.67,407.29 779.83,407.16 782.00,407.03 784.17,406.90 786.33,406.77 788.50,406.64 790.67,406.52 792.83,406.39 795.00,406.27 797.17,406.15 799.33,406.03 801.50,405.92 803.67,405.81 805.83,405.70 808.00,405.59 810.17,405.49 812.33,405.39 814.50,405.29 816.67,405.20 818.83,405.11 821.00,405.03 823.17,404.95 825.33,404.88 827.50,404.81 829.67,404.74 831.83,404.67 834.00,404.59 836.17,404.51 838.33,404.42 840.50,404.33 842.67,404.24 844.83,404.14 847.00,404.03 849.17,403.92 851.33,403.80 853.50,403.68 855.67,403.56 857.83,403.42 860.00,403.29"/>
  <polyline fill="none" stroke="#b45309" stroke-width="2.0" stroke-dasharray="7 5" points="80.00,466.53 82.17,466.53 84.33,466.53 86.50,466.53 88.67,466.53 90.83,466.53 93.00,466.53 95.17,466.53 97.33,466.53 99.50,466.53 101.67,466.53 103.83,466.53 106.00,466.53 108.17,466.53 110.33,466.53 112.50,466.53 114.67,466.53 116.83,466.53 119.00,466.53 121.17,466.53 123.33,466.53 125.50,466.53 127.67,466.53 129.83,466.53 132.00,466.53 134.17,466.53 136.33,466.53 138.50,466.53 140.67,466.53 142.83,466.53 145.00,466.53 147.17,466.53 149.33,466.53 151.50,466.53 153.67,466.53 155.83,466.53 158.00,466.53 160.17,466.53 162.33,466.53 164.50,466.53 166.67,466.53 168.83,466.53 171.00,466.53 173.17,466.53 175.33,466.53 177.50,466.53 179.67,466.53 181.83,466.53 184.00,466.53 186.17,466.53 188.33,466.53 190.50,466.53 192.67,466.53 194.83,466.53 197.00,466.53 199.17,466.53 201.33,466.53 203.50,466.53 205.67,466.53 207.83,466.53 210.00,466.53 212.17,466.53 214.33,466.53 216.50,466.53 218.67,466.53 220.83,466.53 223.00,466.53 225.17,466.53 227.33,466.53 229.50,466.53 231.67,466.53 233.83,466.53 236.00,466.53 238.17,466.53 240.33,466.53 242.50,466.53 244.67,466.53 246.83,466.53 249.00,466.53 251.17,466.53 253.33,466.53 255.50,466.53 257.67,466.53 259.83,466.53 262.00,466.53 264.17,466.53 266.33,466.53 268.50,466.53 270.67,466.53 272.83,466.53 275.00,466.53 277.17,466.53 279.33,466.53 281.50,466.53 283.67,466.53 285.83,466.53 288.00,466.53 290.17,466.53 292.33,466.53 294.50,466.53 296.67,466.53 298.83,466.53 301.00,466.53 303.17,466.53 305.33,466.53 307.50,466.53 309.67,466.53 311.83,466.53 314.00,466.53 316.17,466.53 318.33,466.53 320.50,466.53 322.67,466.53 324.83,466.53 327.00,466.53 329.17,466.53 331.33,466.53 333.50,466.53 335.67,466.53 337.83,466.53 340.00,466.53 342.17,466.53 344.33,466.53 346.50,466.53 348.67,466.53 350.83,466.53 353.00,466.53 355.17,466.53 357.33,466.53 359.50,466.53 361.67,466.53 363.83,466.53 366.00,466.53 368.17,466.53 370.33,466.53 372.50,466.53 374.67,466.53 376.83,466.53 379.00,466.53 381.17,466.53 383.33,466.53 385.50,466.53 387.67,466.53 389.83,466.53 392.00,466.53 394.17,466.53 396.33,466.53 398.50,466.53 400.67,466.53 402.83,466.53 405.00,466.53 407.17,466.53 409.33,466.53 411.50,466.53 413.67,466.53 415.83,466.53 418.00,466.53 420.17,466.53 422.33,466.53 424.50,466.53 426.67,466.53 428.83,466.53 431.00,466.53 433.17,466.53 435.33,466.53 437.50,466.53 439.67,466.53 441.83,466.53 444.00,466.53 446.17,466.53 448.33,466.53 450.50,466.53 452.67,466.53 454.83,466.53 457.00,466.53 459.17,466.53 461.33,466.53 463.50,466.53 465.67,466.53 467.83,466.53 470.00,466.53 472.17,466.53 474.33,466.53 476.50,466.53 478.67,466.53 480.83,466.53 483.00,466.53 485.17,466.53 487.33,466.53 489.50,466.53 491.67,466.53 493.83,466.53 496.00,466.53 498.17,466.53 500.33,466.53 502.50,466.53 504.67,466.53 506.83,466.53 509.00,466.53 511.17,466.53 513.33,466.53 515.50,466.53 517.67,466.53 519.83,466.53 522.00,466.53 524.17,466.53 526.33,466.53 528.50,466.53 530.67,466.53 532.83,466.53 535.00,466.53 537.17,466.53 539.33,466.53 541.50,466.53 543.67,466.53 545.83,466.53 548.00,466.53 550.17,466.53 552.33,466.53 554.50,466.53 556.67,466.53 558.83,466.53 561.00,466.53 563.17,466.53 565.33,466.53 567.50,466.53 569.67,466.53 571.83,466.53 574.00,466.53 576.17,466.53 578.33,466.53 580.50,466.53 582.67,466.53 584.83,466.53 587.00,466.53 589.17,466.53 591.33,466.53 593.50,466.53 595.67,466.53 597.83,466.53 600.00,466.53 602.17,466.53 604.33,466.53 606.50,466.53 608.67,466.53 610.83,466.53 613.00,466.53 615.17,466.53 617.33,466.53 619.50,466.53 621.67,466.53 623.83,466.53 626.00,466.53 628.17,466.53 630.33,466.53 632.50,466.53 634.67,466.53 636.83,466.53 639.00,466.53 641.17,466.53 643.33,466.53 645.50,466.53 647.67,466.53 649.83,466.53 652.00,466.53 654.17,466.53 656.33,466.53 658.50,466.53 660.67,466.53 662.83,466.53 665.00,466.53 667.17,466.53 669.33,466.53 671.50,466.53 673.67,466.53 675.83,466.53 678.00,466.53 680.17,466.53 682.33,466.53 684.50,466.53 686.67,466.53 688.83,466.53 691.00,466.53 693.17,466.53 695.33,466.53 697.50,466.53 699.67,466.53 701.83,466.53 704.00,466.53 706.17,466.53 708.33,466.53 710.50,466.53 712.67,466.53 714.83,466.53 717.00,466.53 719.17,466.53 721.33,466.53 723.50,466.53 725.67,466.53 727.83,466.53 730.00,466.53 732.17,466.53 734.33,466.53 736.50,466.53 738.67,466.53 740.83,466.53 743.00,466.53 745.17,466.53 747.33,466.53 749.50,466.53 751.67,466.53 753.83,466.53 756.00,466.53 758.17,466.53 760.33,466.53 762.50,466.53 764.67,466.53 766.83,466.53 769.00,466.53 771.17,466.53 773.33,466.53 775.50,466.53 777.67,466.53 779.83,466.53 782.00,466.53 784.17,466.53 786.33,466.53 788.50,466.53 790.67,466.53 792.83,466.53 795.00,466.53 797.17,466.53 799.33,466.53 801.50,466.53 803.67,466.53 805.83,466.53 808.00,466.53 810.17,466.53 812.33,466.53 814.50,466.53 816.67,466.53 818.83,466.53 821.00,466.53 823.17,466.53 825.33,466.53 827.50,466.53 829.67,466.53 831.83,466.53 834.00,466.53 836.17,466.53 838.33,466.53 840.50,466.53 842.67,466.53 844.83,466.53 847.00,466.53 849.17,466.53 851.33,466.53 853.50,466.53 855.67,466.53 857.83,466.53 860.00,466.53"/>
  <text x="640" y="358" font-size="13" font-family="Georgia" fill="#1d4ed8">baseline gap</text>
  <text x="640" y="376" font-size="13" font-family="Georgia" fill="#7c3aed">gated gap</text>
  <text x="640" y="394" font-size="13" font-family="Georgia" fill="#b45309">gated Chern number</text>
</svg>
